<?xml version="1.0" encoding="utf-8"?>
<!-- Generator: Adobe Illustrator 25.3.1, SVG Export Plug-In . SVG Version: 6.00 Build 0)  -->
<svg version="1.1" id="Layer_1" xmlns="http://www.w3.org/2000/svg" xmlns:xlink="http://www.w3.org/1999/xlink" x="0px" y="0px"
	 viewBox="0 0 1920 1080" style="enable-background:new 0 0 1920 1080;" xml:space="preserve">
<style type="text/css">
	.st0{fill:url(#SVGID_1_);stroke:#534741;stroke-width:13;stroke-miterlimit:10;}
	.st1{fill:url(#SVGID_2_);stroke:#534741;stroke-width:13;stroke-miterlimit:10;}
	.st2{fill:url(#SVGID_3_);stroke:#534741;stroke-width:13;stroke-miterlimit:10;}
	.st3{fill:url(#SVGID_4_);stroke:#534741;stroke-width:13;stroke-miterlimit:10;}
	.st4{fill:none;stroke:#42210B;stroke-width:13;stroke-miterlimit:10;}
	.st5{fill:#FFFF00;stroke:#42210B;stroke-miterlimit:10;}
	.st6{fill:url(#SVGID_5_);stroke:#006837;stroke-width:12;stroke-miterlimit:10;}
	.st7{fill:none;stroke:#42210B;stroke-width:11;stroke-miterlimit:10;}
	.st8{fill:url(#SVGID_6_);stroke:#006837;stroke-width:12;stroke-miterlimit:10;}
	.st9{fill:url(#SVGID_7_);stroke:#006837;stroke-width:12;stroke-miterlimit:10;}
	.st10{fill:url(#SVGID_8_);stroke:#006837;stroke-width:12;stroke-miterlimit:10;}
	.st11{fill:url(#SVGID_9_);stroke:#FFFF00;stroke-width:29;stroke-miterlimit:10;}
	.st12{fill:url(#SVGID_10_);stroke:#FFFF00;stroke-width:29;stroke-miterlimit:10;}
</style>
<radialGradient id="SVGID_1_" cx="973.219" cy="578.837" r="457.6413" gradientUnits="userSpaceOnUse">
	<stop  offset="0.7388" style="stop-color:#FFFFFF;stop-opacity:0"/>
	<stop  offset="0.8057" style="stop-color:#FFFFFF;stop-opacity:0.4301"/>
	<stop  offset="0.8165" style="stop-color:#FFFFFF;stop-opacity:0.5"/>
	<stop  offset="0.8231" style="stop-color:#DBC01F"/>
	<stop  offset="0.8304" style="stop-color:#F1DC3A"/>
	<stop  offset="0.835" style="stop-color:#F5E13F"/>
	<stop  offset="0.8386" style="stop-color:#DBC01F"/>
	<stop  offset="0.8523" style="stop-color:#E1CB46"/>
	<stop  offset="0.872" style="stop-color:#E9D976"/>
	<stop  offset="0.8922" style="stop-color:#F0E4A0"/>
	<stop  offset="0.9126" style="stop-color:#F5EEC3"/>
	<stop  offset="0.9332" style="stop-color:#FAF5DD"/>
	<stop  offset="0.9543" style="stop-color:#FDFBF0"/>
	<stop  offset="0.976" style="stop-color:#FEFEFB"/>
	<stop  offset="0.9993" style="stop-color:#FFFFFF"/>
</radialGradient>
<path class="st0" d="M1509.38,941.34H437.06V255.13c0-21.42,17.37-38.79,38.79-38.79h995.54c20.98,0,37.98,17.01,37.98,37.98V941.34
	z"/>
<radialGradient id="SVGID_2_" cx="971.0035" cy="990.918" r="455.6693" gradientUnits="userSpaceOnUse">
	<stop  offset="0.7388" style="stop-color:#FFFFFF;stop-opacity:0"/>
	<stop  offset="0.8057" style="stop-color:#FFFFFF;stop-opacity:0.4301"/>
	<stop  offset="0.8165" style="stop-color:#FFFFFF;stop-opacity:0.5"/>
	<stop  offset="0.8231" style="stop-color:#DBC01F"/>
	<stop  offset="0.8304" style="stop-color:#F1DC3A"/>
	<stop  offset="0.835" style="stop-color:#F5E13F"/>
	<stop  offset="0.8386" style="stop-color:#DBC01F"/>
	<stop  offset="0.8523" style="stop-color:#E1CB46"/>
	<stop  offset="0.872" style="stop-color:#E9D976"/>
	<stop  offset="0.8922" style="stop-color:#F0E4A0"/>
	<stop  offset="0.9126" style="stop-color:#F5EEC3"/>
	<stop  offset="0.9332" style="stop-color:#FAF5DD"/>
	<stop  offset="0.9543" style="stop-color:#FDFBF0"/>
	<stop  offset="0.976" style="stop-color:#FEFEFB"/>
	<stop  offset="0.9993" style="stop-color:#FFFFFF"/>
</radialGradient>
<path class="st1" d="M1580.78,1040.5H358.72c-16.69,0-30.22-13.53-30.22-30.22v-68.94h1285.01v66.44
	C1613.51,1025.85,1598.86,1040.5,1580.78,1040.5z"/>
<radialGradient id="SVGID_3_" cx="976.5423" cy="582.1425" r="376.3968" gradientUnits="userSpaceOnUse">
	<stop  offset="0.7388" style="stop-color:#FFFFFF;stop-opacity:0"/>
	<stop  offset="0.8057" style="stop-color:#FFFFFF;stop-opacity:0.4301"/>
	<stop  offset="0.8165" style="stop-color:#FFFFFF;stop-opacity:0.5"/>
	<stop  offset="0.8231" style="stop-color:#DBC01F"/>
	<stop  offset="0.8304" style="stop-color:#F1DC3A"/>
	<stop  offset="0.835" style="stop-color:#F5E13F"/>
	<stop  offset="0.8386" style="stop-color:#DBC01F"/>
	<stop  offset="0.8523" style="stop-color:#E1CB46"/>
	<stop  offset="0.872" style="stop-color:#E9D976"/>
	<stop  offset="0.8922" style="stop-color:#F0E4A0"/>
	<stop  offset="0.9126" style="stop-color:#F5EEC3"/>
	<stop  offset="0.9332" style="stop-color:#FAF5DD"/>
	<stop  offset="0.9543" style="stop-color:#FDFBF0"/>
	<stop  offset="0.976" style="stop-color:#FEFEFB"/>
	<stop  offset="0.9993" style="stop-color:#FFFFFF"/>
</radialGradient>
<rect x="527.9" y="295.67" class="st2" width="897.29" height="572.95"/>
<radialGradient id="SVGID_4_" cx="981.7928" cy="956.1412" r="55.4973" gradientUnits="userSpaceOnUse">
	<stop  offset="0.7388" style="stop-color:#FFFFFF;stop-opacity:0"/>
	<stop  offset="0.8057" style="stop-color:#FFFFFF;stop-opacity:0.4301"/>
	<stop  offset="0.8165" style="stop-color:#FFFFFF;stop-opacity:0.5"/>
	<stop  offset="0.8231" style="stop-color:#DBC01F"/>
	<stop  offset="0.8304" style="stop-color:#F1DC3A"/>
	<stop  offset="0.835" style="stop-color:#F5E13F"/>
	<stop  offset="0.8386" style="stop-color:#DBC01F"/>
	<stop  offset="0.8523" style="stop-color:#E1CB46"/>
	<stop  offset="0.872" style="stop-color:#E9D976"/>
	<stop  offset="0.8922" style="stop-color:#F0E4A0"/>
	<stop  offset="0.9126" style="stop-color:#F5EEC3"/>
	<stop  offset="0.9332" style="stop-color:#FAF5DD"/>
	<stop  offset="0.9543" style="stop-color:#FDFBF0"/>
	<stop  offset="0.976" style="stop-color:#FEFEFB"/>
	<stop  offset="0.9993" style="stop-color:#FFFFFF"/>
</radialGradient>
<rect x="904.25" y="944.02" class="st3" width="155.09" height="24.24"/>
<path class="st4" d="M925.67,300.42c-0.01-0.21-0.01-0.4-0.01-0.61"/>
<path class="st5" d="M1794.62,420.91"/>
<radialGradient id="SVGID_5_" cx="969.9694" cy="125.5202" r="131.4818" gradientUnits="userSpaceOnUse">
	<stop  offset="0" style="stop-color:#FFFFFF"/>
	<stop  offset="0.0851" style="stop-color:#FFEDD8"/>
	<stop  offset="0.2082" style="stop-color:#FFD5A7"/>
	<stop  offset="0.3345" style="stop-color:#FFC17D"/>
	<stop  offset="0.462" style="stop-color:#FFB05B"/>
	<stop  offset="0.591" style="stop-color:#FFA340"/>
	<stop  offset="0.7222" style="stop-color:#FF9A2D"/>
	<stop  offset="0.8568" style="stop-color:#FF9522"/>
	<stop  offset="1" style="stop-color:#FF931E"/>
</radialGradient>
<path class="st6" d="M890.21,212c-1.61-1.13-3.07-2.38-3.07-2.38c-4.53-4.37-7.08-12.52-42.31-64.46
	c-4.82-7.11-15.61-23.03-16.25-23.97c-3.34-4.92-4.85-7.13-6.47-9.52c-4.04-5.95-4.37-6.43-5.74-8.43
	c-6.6-9.65-6.79-9.63-6.89-10.14c-2.98-15.79,23.24-40.87,51.27-44.72c27.72-3.81,34.64,16.21,61.09,12
	c28.1-4.48,31.18-28.83,53.45-28.36c24.18,0.5,27.66,29.37,55.63,32.73c23.07,2.77,29.46-15.82,54.54-13.09
	c18.66,2.03,40.54,15.08,44.72,32.73c1.49,6.29-0.85,12.12-1.74,14.86c-1.05,3.23-2.79,6.28-2.79,6.28s-0.06,0.11-0.12,0.21
	c-4.3,7.63-17.71,20.64-17.71,20.64c-1.97,1.91-3.45,3.88-11.45,24.54c-13.62,35.17-20.44,52.75-31.63,62.18
	c-13.98,11.76-20.88,0.43-75.27,4.36C988.8,217.5,906.54,223.45,890.21,212z"/>
<path class="st7" d="M909.3,137.27"/>
<radialGradient id="SVGID_6_" cx="975.4653" cy="250.087" r="89.724" gradientUnits="userSpaceOnUse">
	<stop  offset="0" style="stop-color:#FFFFFF"/>
	<stop  offset="0.0851" style="stop-color:#FFEDD8"/>
	<stop  offset="0.2082" style="stop-color:#FFD5A7"/>
	<stop  offset="0.3345" style="stop-color:#FFC17D"/>
	<stop  offset="0.462" style="stop-color:#FFB05B"/>
	<stop  offset="0.591" style="stop-color:#FFA340"/>
	<stop  offset="0.7222" style="stop-color:#FF9A2D"/>
	<stop  offset="0.8568" style="stop-color:#FF9522"/>
	<stop  offset="1" style="stop-color:#FF931E"/>
</radialGradient>
<path class="st8" d="M871.12,277.99c-9.44-6.3-17.27-18.72-16.36-32.73c1.08-16.68,14.13-28.8,26.18-32.73
	c11.6-3.78,18.98,1.11,36,5.45c37.67,9.63,73.95,4.22,94.9,1.09c8.67-1.29,21.48-3.66,40.36-4.36c26.66-1,33.23,2.5,37.09,6.55
	c7.35,7.7,7.06,19.7,6.9,26.73c-0.12,5.23-0.38,15.97-5.81,23.45c-13.79,18.99-47.69-1.32-103.63,12
	c-9.39,2.23-17.28,4.91-30.54,5.45c-16.57,0.68-19.63-2.88-44.72-5.45C884.69,280.69,879.98,283.9,871.12,277.99z"/>
<radialGradient id="SVGID_7_" cx="977.9236" cy="549.9241" r="271.8637" gradientUnits="userSpaceOnUse">
	<stop  offset="0" style="stop-color:#FFFFFF"/>
	<stop  offset="0.0851" style="stop-color:#FFEDD8"/>
	<stop  offset="0.2082" style="stop-color:#FFD5A7"/>
	<stop  offset="0.3345" style="stop-color:#FFC17D"/>
	<stop  offset="0.462" style="stop-color:#FFB05B"/>
	<stop  offset="0.591" style="stop-color:#FFA340"/>
	<stop  offset="0.7222" style="stop-color:#FF9A2D"/>
	<stop  offset="0.8568" style="stop-color:#FF9522"/>
	<stop  offset="1" style="stop-color:#FF931E"/>
</radialGradient>
<path class="st9" d="M904.94,813.6c-62.45-12.21-114.77-22.44-153.81-65.45c-72.87-80.28-44.4-214.09-17.45-278.17
	c4.4-10.47,23.3-40.79,61.09-101.45c34.86-55.96,49.04-75.54,74.18-82.9c16.09-4.71,16.17,1.59,66.54,3.27
	c34.01,1.14,57.23,1.91,87.27-2.18c36.05-4.91,56.75-13.4,69.81-1.09c4.23,3.99,2.67,5.45,13.09,21.82
	c1.93,3.03,10.74,16.73,21.82,29.45c12.63,14.51,23.29,22.11,29.45,27.27c17.13,14.36,25.04,31.3,41.45,70.91
	c30.28,73.06,45.43,109.59,48,125.45c3.81,23.53,9.91,63.94-4.36,112.36c-5.35,18.14-15.99,52.77-45.82,82.9
	c-30.98,31.3-65.78,40.71-106.9,51.27C997.71,830.57,922.33,817,904.94,813.6z"/>
<radialGradient id="SVGID_8_" cx="977.2054" cy="126.0575" r="105.5771" gradientUnits="userSpaceOnUse">
	<stop  offset="0" style="stop-color:#FFFFFF"/>
	<stop  offset="0.0851" style="stop-color:#FFEDD8"/>
	<stop  offset="0.2082" style="stop-color:#FFD5A7"/>
	<stop  offset="0.3345" style="stop-color:#FFC17D"/>
	<stop  offset="0.462" style="stop-color:#FFB05B"/>
	<stop  offset="0.591" style="stop-color:#FFA340"/>
	<stop  offset="0.7222" style="stop-color:#FF9A2D"/>
	<stop  offset="0.8568" style="stop-color:#FF9522"/>
	<stop  offset="1" style="stop-color:#FF931E"/>
</radialGradient>
<path class="st10" d="M957.79,121.25c-43.97,20.36-43.97,20.36-67.3,19.41c-34.84-1.41-60.83-20.71-60.83-20.71
	s25.92,21.66,60.83,20.71C925.26,139.71,930.32,117.37,957.79,121.25c25.01,3.53,30.2,23.36,63.42,27.18
	c12.38,1.42,21.89-0.15,28.47-1.29c38.07-6.6,63.75-31.38,75.06-44"/>
<path class="st4" d="M1107.83,96.91"/>
<linearGradient id="SVGID_9_" gradientUnits="userSpaceOnUse" x1="978.0236" y1="541.9778" x2="978.0236" y2="541.9778">
	<stop  offset="0" style="stop-color:#FF7BAC"/>
	<stop  offset="1" style="stop-color:#FF7BAC;stop-opacity:0"/>
</linearGradient>
<line class="st11" x1="978.02" y1="400.17" x2="978.02" y2="683.79"/>
<linearGradient id="SVGID_10_" gradientUnits="userSpaceOnUse" x1="897.3008" y1="537.3649" x2="1049.0016" y2="537.3649">
	<stop  offset="0" style="stop-color:#FF7BAC"/>
	<stop  offset="1" style="stop-color:#FF7BAC;stop-opacity:0"/>
</linearGradient>
<path class="st12" d="M897.3,604.16c42.16,33.6,89.78,44.63,121.08,26.18c12.45-7.34,31.96-25.02,30.54-45.82
	c-1.23-18.07-17.68-30.12-30.54-39.27c-44.44-31.61-80.13-17.5-94.9-42.54c-8.85-15-5.44-35.99,3.27-48
	c17.76-24.46,69.61-28.2,122.17,4.36"/>
</svg>
